<svg width="1920" height="520" viewBox="0 0 1920 520" fill="none" xmlns="http://www.w3.org/2000/svg">
  <defs>
    <linearGradient id="academyBg" x1="120" y1="30" x2="1760" y2="520" gradientUnits="userSpaceOnUse">
      <stop stop-color="#0C233B"/>
      <stop offset="0.48" stop-color="#123556"/>
      <stop offset="1" stop-color="#0B1C31"/>
    </linearGradient>
    <radialGradient id="glowA" cx="0" cy="0" r="1" gradientUnits="userSpaceOnUse" gradientTransform="translate(1420 110) rotate(124) scale(380 620)">
      <stop stop-color="#00A79D" stop-opacity="0.42"/>
      <stop offset="1" stop-color="#00A79D" stop-opacity="0"/>
    </radialGradient>
    <radialGradient id="glowB" cx="0" cy="0" r="1" gradientUnits="userSpaceOnUse" gradientTransform="translate(540 430) rotate(36) scale(460 540)">
      <stop stop-color="#4FA3D9" stop-opacity="0.28"/>
      <stop offset="1" stop-color="#4FA3D9" stop-opacity="0"/>
    </radialGradient>
    <pattern id="grid" width="44" height="44" patternUnits="userSpaceOnUse">
      <path d="M44 0H0V44" stroke="white" stroke-opacity="0.07" stroke-width="1"/>
    </pattern>
  </defs>

  <rect width="1920" height="520" fill="url(#academyBg)"/>
  <rect width="1920" height="520" fill="url(#grid)"/>
  <rect width="1920" height="520" fill="url(#glowA)"/>
  <rect width="1920" height="520" fill="url(#glowB)"/>

  <g opacity="0.24">
    <circle cx="1650" cy="126" r="74" stroke="#9BDAFF" stroke-width="2"/>
    <circle cx="1650" cy="126" r="48" stroke="#9BDAFF" stroke-width="2"/>
    <path d="M1598 126H1702" stroke="#9BDAFF" stroke-width="2"/>
    <path d="M1650 74V178" stroke="#9BDAFF" stroke-width="2"/>
  </g>

  <g opacity="0.22">
    <rect x="170" y="108" width="420" height="86" rx="12" fill="#FFFFFF"/>
    <rect x="196" y="132" width="224" height="13" rx="6.5" fill="#0F4C81" fill-opacity="0.28"/>
    <rect x="196" y="155" width="312" height="10" rx="5" fill="#0F4C81" fill-opacity="0.18"/>
  </g>

  <g opacity="0.16">
    <rect x="1240" y="332" width="470" height="120" rx="16" fill="#FFFFFF"/>
    <rect x="1270" y="362" width="170" height="10" rx="5" fill="#0F4C81" fill-opacity="0.25"/>
    <rect x="1270" y="382" width="300" height="9" rx="4.5" fill="#0F4C81" fill-opacity="0.16"/>
    <rect x="1270" y="401" width="250" height="9" rx="4.5" fill="#0F4C81" fill-opacity="0.16"/>
  </g>
</svg>
