<svg width="1920" height="520" viewBox="0 0 1920 520" fill="none" xmlns="http://www.w3.org/2000/svg">
  <defs>
    <linearGradient id="insideBg" x1="0" y1="0" x2="1920" y2="520" gradientUnits="userSpaceOnUse">
      <stop stop-color="#12263D"/>
      <stop offset="0.55" stop-color="#1A3A5B"/>
      <stop offset="1" stop-color="#102033"/>
    </linearGradient>
    <radialGradient id="insideGlowA" cx="0" cy="0" r="1" gradientUnits="userSpaceOnUse" gradientTransform="translate(1460 120) rotate(132) scale(420 640)">
      <stop stop-color="#00A79D" stop-opacity="0.32"/>
      <stop offset="1" stop-color="#00A79D" stop-opacity="0"/>
    </radialGradient>
    <radialGradient id="insideGlowB" cx="0" cy="0" r="1" gradientUnits="userSpaceOnUse" gradientTransform="translate(420 420) rotate(26) scale(560 580)">
      <stop stop-color="#5CA9DB" stop-opacity="0.24"/>
      <stop offset="1" stop-color="#5CA9DB" stop-opacity="0"/>
    </radialGradient>
    <pattern id="dotPattern" width="24" height="24" patternUnits="userSpaceOnUse">
      <circle cx="2.5" cy="2.5" r="1.5" fill="white" fill-opacity="0.07"/>
    </pattern>
  </defs>

  <rect width="1920" height="520" fill="url(#insideBg)"/>
  <rect width="1920" height="520" fill="url(#dotPattern)"/>
  <rect width="1920" height="520" fill="url(#insideGlowA)"/>
  <rect width="1920" height="520" fill="url(#insideGlowB)"/>

  <g opacity="0.22">
    <rect x="170" y="102" width="510" height="124" rx="14" fill="#FFFFFF"/>
    <rect x="202" y="136" width="190" height="12" rx="6" fill="#0F4C81" fill-opacity="0.25"/>
    <rect x="202" y="158" width="360" height="10" rx="5" fill="#0F4C81" fill-opacity="0.17"/>
    <rect x="202" y="178" width="286" height="10" rx="5" fill="#0F4C81" fill-opacity="0.17"/>
  </g>

  <g opacity="0.2">
    <rect x="1210" y="316" width="560" height="150" rx="16" fill="#FFFFFF"/>
    <rect x="1244" y="352" width="212" height="12" rx="6" fill="#0F4C81" fill-opacity="0.24"/>
    <rect x="1244" y="374" width="408" height="10" rx="5" fill="#0F4C81" fill-opacity="0.16"/>
    <rect x="1244" y="394" width="316" height="10" rx="5" fill="#0F4C81" fill-opacity="0.16"/>
    <rect x="1244" y="414" width="370" height="10" rx="5" fill="#0F4C81" fill-opacity="0.16"/>
  </g>

  <g opacity="0.24">
    <circle cx="1560" cy="132" r="68" stroke="#9ED9FF" stroke-width="2"/>
    <circle cx="1560" cy="132" r="44" stroke="#9ED9FF" stroke-width="2"/>
    <path d="M1512 132H1608" stroke="#9ED9FF" stroke-width="2"/>
    <path d="M1560 84V180" stroke="#9ED9FF" stroke-width="2"/>
  </g>
</svg>
