<svg width="720" height="520" viewBox="0 0 720 520" fill="none" xmlns="http://www.w3.org/2000/svg">
  <defs>
    <linearGradient id="bg" x1="80" y1="40" x2="640" y2="460" gradientUnits="userSpaceOnUse">
      <stop stop-color="#E8F5F4"/>
      <stop offset="1" stop-color="#D5EAF6"/>
    </linearGradient>
    <linearGradient id="accent" x1="420" y1="90" x2="630" y2="290" gradientUnits="userSpaceOnUse">
      <stop stop-color="#00A79D"/>
      <stop offset="1" stop-color="#007A73"/>
    </linearGradient>
  </defs>
  <rect x="20" y="20" width="680" height="480" rx="28" fill="url(#bg)"/>
  <rect x="70" y="90" width="360" height="280" rx="18" fill="#FFFFFF" stroke="#C7D9E6" stroke-width="2"/>
  <rect x="95" y="120" width="220" height="16" rx="8" fill="#0F4C81" fill-opacity="0.18"/>
  <rect x="95" y="148" width="170" height="12" rx="6" fill="#0F4C81" fill-opacity="0.12"/>
  <rect x="95" y="190" width="310" height="72" rx="12" fill="#F3F8FC"/>
  <rect x="110" y="208" width="128" height="10" rx="5" fill="#0F4C81" fill-opacity="0.25"/>
  <rect x="110" y="228" width="184" height="10" rx="5" fill="#0F4C81" fill-opacity="0.15"/>
  <rect x="70" y="390" width="360" height="52" rx="14" fill="#0F4C81"/>
  <rect x="450" y="85" width="210" height="240" rx="24" fill="url(#accent)"/>
  <circle cx="555" cy="165" r="44" fill="#FFFFFF" fill-opacity="0.22"/>
  <path d="M535 165H575" stroke="#FFFFFF" stroke-width="6" stroke-linecap="round"/>
  <path d="M555 145V185" stroke="#FFFFFF" stroke-width="6" stroke-linecap="round"/>
  <rect x="448" y="342" width="214" height="100" rx="18" fill="#FFFFFF" stroke="#C7D9E6" stroke-width="2"/>
  <rect x="470" y="366" width="150" height="12" rx="6" fill="#0F4C81" fill-opacity="0.22"/>
  <rect x="470" y="388" width="120" height="10" rx="5" fill="#0F4C81" fill-opacity="0.14"/>
  <rect x="470" y="408" width="96" height="10" rx="5" fill="#0F4C81" fill-opacity="0.14"/>
  <circle cx="143" cy="430" r="8" fill="#00A79D"/>
  <circle cx="171" cy="430" r="8" fill="#00A79D" fill-opacity="0.5"/>
  <circle cx="199" cy="430" r="8" fill="#00A79D" fill-opacity="0.28"/>
</svg>
